# Created by Open3D 
# object name: approach_slabs
# number of vertices: 48
# number of triangles: 24
v 28.9 -12 0
vn -1 0 0
v 28.9 12 0.3
vn -1 0 0
v 28.9 12 0
vn -1 0 0
v 28.9 -12 0.3
vn -1 0 0
v 38.9 -12 0
vn 1 0 0
v 38.9 12 0
vn 1 0 0
v 38.9 12 0.3
vn 1 0 0
v 38.9 -12 0.3
vn 1 -0 0
v 38.9 -12 0.3
vn 0 -1 -0
v 28.9 -12 0
vn 0 -1 -0
v 38.9 -12 0
vn 0 -1 -0
v 28.9 -12 0.3
vn -0 -1 0
v 38.9 12 0.3
vn 0 1 0
v 38.9 12 0
vn 0 1 0
v 28.9 12 0
vn 0 1 0
v 28.9 12 0.3
vn 0 1 0
v 38.9 12 0
vn -0 0 -1
v 28.9 -12 0
vn -0 0 -1
v 28.9 12 0
vn -0 0 -1
v 38.9 -12 0
vn 0 -0 -1
v 38.9 12 0.3
vn 0 0 1
v 28.9 12 0.3
vn 0 0 1
v 28.9 -12 0.3
vn 0 0 1
v 38.9 -12 0.3
vn 0 0 1
v -28.9 -12 0
vn 1 0 0
v -28.9 12 0
vn 1 0 0
v -28.9 12 0.3
vn 1 0 0
v -28.9 -12 0.3
vn 1 -0 0
v -38.9 -12 0
vn -1 0 0
v -38.9 12 0.3
vn -1 0 0
v -38.9 12 0
vn -1 0 0
v -38.9 -12 0.3
vn -1 0 0
v -38.9 -12 0.3
vn 0 -1 0
v -38.9 -12 0
vn 0 -1 0
v -28.9 -12 0
vn 0 -1 0
v -28.9 -12 0.3
vn 0 -1 0
v -38.9 12 0.3
vn 0 1 0
v -28.9 12 0
vn 0 1 0
v -38.9 12 0
vn 0 1 0
v -28.9 12 0.3
vn -0 1 0
v -38.9 12 0
vn 0 0 -1
v -28.9 12 0
vn 0 0 -1
v -28.9 -12 0
vn 0 0 -1
v -38.9 -12 0
vn 0 0 -1
v -38.9 12 0.3
vn -0 0 1
v -28.9 -12 0.3
vn -0 0 1
v -28.9 12 0.3
vn -0 0 1
v -38.9 -12 0.3
vn 0 0 1
f 1//1 2//2 3//3
f 4//4 2//2 1//1
f 5//5 6//6 7//7
f 8//8 5//5 7//7
f 9//9 10//10 11//11
f 9//9 12//12 10//10
f 13//13 14//14 15//15
f 13//13 15//15 16//16
f 17//17 18//18 19//19
f 17//17 20//20 18//18
f 21//21 22//22 23//23
f 21//21 23//23 24//24
f 25//25 26//26 27//27
f 28//28 25//25 27//27
f 29//29 30//30 31//31
f 32//32 30//30 29//29
f 33//33 34//34 35//35
f 33//33 35//35 36//36
f 37//37 38//38 39//39
f 37//37 40//40 38//38
f 41//41 42//42 43//43
f 41//41 43//43 44//44
f 45//45 46//46 47//47
f 45//45 48//48 46//46
