# Created by Open3D 
# object name: wing_walls
# number of vertices: 168
# number of triangles: 96
v 28.9 12 -5.9
vn -0 0 -1
v 26.9 11.5 -5.9
vn -0 0 -1
v 26.9 12 -5.9
vn -0 0 -1
v 28.9 11.5 -5.9
vn 0 -0 -1
v 32.9 12 -2.5
vn 0.647648 0 -0.761939
v 28.9 11.5 -5.9
vn 0.647648 0 -0.761939
v 28.9 12 -5.9
vn 0.647648 0 -0.761939
v 32.9 11.5 -2.5
vn 0.647648 0 -0.761939
v 32.9 12 0
vn 1 0 0
v 32.9 11.5 -2.5
vn 1 0 0
v 32.9 12 -2.5
vn 1 0 0
v 32.9 11.5 0
vn 1 0 0
v 28.9 12 0
vn -0 0 1
v 32.9 11.5 0
vn -0 0 1
v 32.9 12 0
vn -0 0 1
v 28.9 11.5 0
vn 0 0 1
v 28.9 12 -0.9
vn -1 0 0
v 28.9 11.5 0
vn -1 0 0
v 28.9 12 0
vn -1 0 0
v 28.9 11.5 -0.9
vn -1 0 0
v 26.9 12 -0.9
vn -1.66533e-16 0 1
v 28.9 11.5 -0.9
vn -1.66533e-16 0 1
v 28.9 12 -0.9
vn -1.66533e-16 0 1
v 26.9 11.5 -0.9
vn -1.66533e-16 0 1
v 26.9 12 -5.9
vn -1 0 0
v 26.9 11.5 -0.9
vn -1 0 0
v 26.9 12 -0.9
vn -1 0 0
v 26.9 11.5 -5.9
vn -1 0 0
v 32.9 12 0
vn 0 1 0
v 28.9 12 -0.9
vn 0 1 0
v 28.9 12 0
vn 0 1 0
v 28.9 12 -5.9
vn 0 1 -0
v 26.9 12 -0.9
vn 0 1 -0
v 26.9 12 -5.9
vn 0 1 0
v 32.9 12 -2.5
vn 0 1 -0
v 32.9 11.5 0
vn -0 -1 0
v 28.9 11.5 0
vn -0 -1 0
v 28.9 11.5 -0.9
vn -0 -1 0
v 28.9 11.5 -5.9
vn 0 -1 0
v 26.9 11.5 -0.9
vn 0 -1 0
v 26.9 11.5 -5.9
vn 0 -1 0
v 32.9 11.5 -2.5
vn 0 -1 0
v 28.9 -12 -5.9
vn 0 0 -1
v 26.9 -12 -5.9
vn 0 0 -1
v 26.9 -11.5 -5.9
vn 0 0 -1
v 28.9 -11.5 -5.9
vn 0 0 -1
v 32.9 -12 -2.5
vn 0.647648 0 -0.761939
v 28.9 -12 -5.9
vn 0.647648 0 -0.761939
v 28.9 -11.5 -5.9
vn 0.647648 0 -0.761939
v 32.9 -11.5 -2.5
vn 0.647648 0 -0.761939
v 32.9 -12 0
vn 1 0 0
v 32.9 -12 -2.5
vn 1 0 0
v 32.9 -11.5 -2.5
vn 1 0 0
v 32.9 -11.5 0
vn 1 -0 0
v 28.9 -12 0
vn 0 0 1
v 32.9 -12 0
vn 0 0 1
v 32.9 -11.5 0
vn 0 0 1
v 28.9 -11.5 0
vn 0 0 1
v 28.9 -12 -0.9
vn -1 0 0
v 28.9 -12 0
vn -1 0 0
v 28.9 -11.5 0
vn -1 0 0
v 28.9 -11.5 -0.9
vn -1 0 0
v 26.9 -12 -0.9
vn -1.66533e-16 0 1
v 28.9 -12 -0.9
vn -1.66533e-16 0 1
v 28.9 -11.5 -0.9
vn -1.66533e-16 0 1
v 26.9 -11.5 -0.9
vn -1.66533e-16 0 1
v 26.9 -12 -5.9
vn -1 0 0
v 26.9 -12 -0.9
vn -1 0 0
v 26.9 -11.5 -0.9
vn -1 0 0
v 26.9 -11.5 -5.9
vn -1 0 0
v 32.9 -12 0
vn -0 -1 0
v 28.9 -12 0
vn -0 -1 0
v 28.9 -12 -0.9
vn -0 -1 0
v 28.9 -12 -5.9
vn 0 -1 0
v 26.9 -12 -0.9
vn 0 -1 0
v 26.9 -12 -5.9
vn 0 -1 0
v 32.9 -12 -2.5
vn 0 -1 0
v 32.9 -11.5 0
vn 0 1 0
v 28.9 -11.5 -0.9
vn 0 1 0
v 28.9 -11.5 0
vn 0 1 0
v 28.9 -11.5 -5.9
vn 0 1 -0
v 26.9 -11.5 -0.9
vn 0 1 -0
v 26.9 -11.5 -5.9
vn 0 1 0
v 32.9 -11.5 -2.5
vn 0 1 -0
v -28.9 12 -5.9
vn 0 0 -1
v -26.9 12 -5.9
vn 0 0 -1
v -26.9 11.5 -5.9
vn 0 0 -1
v -28.9 11.5 -5.9
vn 0 0 -1
v -32.9 12 -2.5
vn -0.647648 0 -0.761939
v -28.9 12 -5.9
vn -0.647648 0 -0.761939
v -28.9 11.5 -5.9
vn -0.647648 0 -0.761939
v -32.9 11.5 -2.5
vn -0.647648 -0 -0.761939
v -32.9 12 0
vn -1 0 -0
v -32.9 12 -2.5
vn -1 0 -0
v -32.9 11.5 -2.5
vn -1 0 -0
v -32.9 11.5 0
vn -1 -0 0
v -28.9 12 0
vn 0 0 1
v -32.9 12 0
vn 0 0 1
v -32.9 11.5 0
vn 0 0 1
v -28.9 11.5 0
vn 0 0 1
v -28.9 12 -0.9
vn 1 0 -0
v -28.9 12 0
vn 1 0 -0
v -28.9 11.5 0
vn 1 0 -0
v -28.9 11.5 -0.9
vn 1 0 0
v -26.9 12 -0.9
vn 1.66533e-16 0 1
v -28.9 12 -0.9
vn 1.66533e-16 0 1
v -28.9 11.5 -0.9
vn 1.66533e-16 0 1
v -26.9 11.5 -0.9
vn 1.66533e-16 0 1
v -26.9 12 -5.9
vn 1 0 -0
v -26.9 12 -0.9
vn 1 0 -0
v -26.9 11.5 -0.9
vn 1 0 -0
v -26.9 11.5 -5.9
vn 1 0 0
v -32.9 12 0
vn -0 1 0
v -28.9 12 0
vn -0 1 0
v -28.9 12 -0.9
vn -0 1 0
v -28.9 12 -5.9
vn 0 1 0
v -26.9 12 -0.9
vn 0 1 0
v -26.9 12 -5.9
vn 0 1 0
v -32.9 12 -2.5
vn 0 1 0
v -32.9 11.5 0
vn 0 -1 0
v -28.9 11.5 -0.9
vn 0 -1 0
v -28.9 11.5 0
vn 0 -1 0
v -28.9 11.5 -5.9
vn 0 -1 0
v -26.9 11.5 -0.9
vn 0 -1 0
v -26.9 11.5 -5.9
vn 0 -1 0
v -32.9 11.5 -2.5
vn 0 -1 0
v -28.9 -12 -5.9
vn 0 0 -1
v -26.9 -11.5 -5.9
vn 0 0 -1
v -26.9 -12 -5.9
vn 0 0 -1
v -28.9 -11.5 -5.9
vn 0 0 -1
v -32.9 -12 -2.5
vn -0.647648 0 -0.761939
v -28.9 -11.5 -5.9
vn -0.647648 0 -0.761939
v -28.9 -12 -5.9
vn -0.647648 0 -0.761939
v -32.9 -11.5 -2.5
vn -0.647648 0 -0.761939
v -32.9 -12 0
vn -1 0 0
v -32.9 -11.5 -2.5
vn -1 0 0
v -32.9 -12 -2.5
vn -1 0 0
v -32.9 -11.5 0
vn -1 0 0
v -28.9 -12 0
vn 0 0 1
v -32.9 -11.5 0
vn 0 0 1
v -32.9 -12 0
vn 0 0 1
v -28.9 -11.5 0
vn 0 -0 1
v -28.9 -12 -0.9
vn 1 0 0
v -28.9 -11.5 0
vn 1 0 0
v -28.9 -12 0
vn 1 0 0
v -28.9 -11.5 -0.9
vn 1 0 0
v -26.9 -12 -0.9
vn 1.66533e-16 0 1
v -28.9 -11.5 -0.9
vn 1.66533e-16 0 1
v -28.9 -12 -0.9
vn 1.66533e-16 0 1
v -26.9 -11.5 -0.9
vn 1.66533e-16 -0 1
v -26.9 -12 -5.9
vn 1 0 0
v -26.9 -11.5 -0.9
vn 1 0 0
v -26.9 -12 -0.9
vn 1 0 0
v -26.9 -11.5 -5.9
vn 1 0 0
v -32.9 -12 0
vn 0 -1 0
v -28.9 -12 -0.9
vn 0 -1 0
v -28.9 -12 0
vn 0 -1 0
v -28.9 -12 -5.9
vn 0 -1 0
v -26.9 -12 -0.9
vn 0 -1 0
v -26.9 -12 -5.9
vn 0 -1 0
v -32.9 -12 -2.5
vn 0 -1 0
v -32.9 -11.5 0
vn -0 1 0
v -28.9 -11.5 0
vn -0 1 0
v -28.9 -11.5 -0.9
vn -0 1 0
v -28.9 -11.5 -5.9
vn 0 1 0
v -26.9 -11.5 -0.9
vn 0 1 0
v -26.9 -11.5 -5.9
vn 0 1 0
v -32.9 -11.5 -2.5
vn 0 1 0
f 1//1 2//2 3//3
f 1//1 4//4 2//2
f 5//5 6//6 7//7
f 5//5 8//8 6//6
f 9//9 10//10 11//11
f 9//9 12//12 10//10
f 13//13 14//14 15//15
f 13//13 16//16 14//14
f 17//17 18//18 19//19
f 17//17 20//20 18//18
f 21//21 22//22 23//23
f 21//21 24//24 22//22
f 25//25 26//26 27//27
f 25//25 28//28 26//26
f 29//29 30//30 31//31
f 32//32 33//33 30//30
f 32//32 34//34 33//33
f 35//35 30//30 29//29
f 35//35 32//32 30//30
f 36//36 37//37 38//38
f 39//39 38//38 40//40
f 39//39 40//40 41//41
f 42//42 36//36 38//38
f 42//42 38//38 39//39
f 43//43 44//44 45//45
f 43//43 45//45 46//46
f 47//47 48//48 49//49
f 47//47 49//49 50//50
f 51//51 52//52 53//53
f 51//51 53//53 54//54
f 55//55 56//56 57//57
f 55//55 57//57 58//58
f 59//59 60//60 61//61
f 59//59 61//61 62//62
f 63//63 64//64 65//65
f 63//63 65//65 66//66
f 67//67 68//68 69//69
f 67//67 69//69 70//70
f 71//71 72//72 73//73
f 74//74 73//73 75//75
f 74//74 75//75 76//76
f 77//77 71//71 73//73
f 77//77 73//73 74//74
f 78//78 79//79 80//80
f 81//81 82//82 79//79
f 81//81 83//83 82//82
f 84//84 79//79 78//78
f 84//84 81//81 79//79
f 85//85 86//86 87//87
f 85//85 87//87 88//88
f 89//89 90//90 91//91
f 89//89 91//91 92//92
f 93//93 94//94 95//95
f 93//93 95//95 96//96
f 97//97 98//98 99//99
f 97//97 99//99 100//100
f 101//101 102//102 103//103
f 101//101 103//103 104//104
f 105//105 106//106 107//107
f 105//105 107//107 108//108
f 109//109 110//110 111//111
f 109//109 111//111 112//112
f 113//113 114//114 115//115
f 116//116 115//115 117//117
f 116//116 117//117 118//118
f 119//119 113//113 115//115
f 119//119 115//115 116//116
f 120//120 121//121 122//122
f 123//123 124//124 121//121
f 123//123 125//125 124//124
f 126//126 121//121 120//120
f 126//126 123//123 121//121
f 127//127 128//128 129//129
f 127//127 130//130 128//128
f 131//131 132//132 133//133
f 131//131 134//134 132//132
f 135//135 136//136 137//137
f 135//135 138//138 136//136
f 139//139 140//140 141//141
f 139//139 142//142 140//140
f 143//143 144//144 145//145
f 143//143 146//146 144//144
f 147//147 148//148 149//149
f 147//147 150//150 148//148
f 151//151 152//152 153//153
f 151//151 154//154 152//152
f 155//155 156//156 157//157
f 158//158 159//159 156//156
f 158//158 160//160 159//159
f 161//161 156//156 155//155
f 161//161 158//158 156//156
f 162//162 163//163 164//164
f 165//165 164//164 166//166
f 165//165 166//166 167//167
f 168//168 162//162 164//164
f 168//168 164//164 165//165
